<?xml version="1.0" standalone="no"?>
<!DOCTYPE svg PUBLIC "-//W3C//DTD SVG 20010904//EN"
 "http://www.w3.org/TR/2001/REC-SVG-20010904/DTD/svg10.dtd">
<svg version="1.0" xmlns="http://www.w3.org/2000/svg"
 width="540.000000pt" height="320.000000pt" viewBox="0 0 540.000000 320.000000"
 preserveAspectRatio="xMidYMid meet">
<metadata>
Created by potrace 1.16, written by Peter Selinger 2001-2019
</metadata>
<g transform="translate(0.000000,320.000000) scale(0.100000,-0.100000)"
fill="#000000" stroke="none">
<path d="M850 1983 c0 -6 -23 -70 -51 -142 l-51 -131 -66 -1 c-37 -1 -105 -4
-151 -7 l-85 -7 118 -94 c76 -62 115 -100 111 -109 -3 -7 -21 -66 -40 -130
-20 -65 -38 -125 -41 -135 -3 -11 42 14 125 68 l130 85 122 -85 c67 -47 124
-84 125 -82 2 2 -14 67 -35 146 l-38 143 123 92 123 93 -97 6 c-53 4 -122 7
-153 7 l-56 0 -48 138 c-44 126 -65 174 -65 145z"/>
<path d="M1770 1965 c-6 -16 -30 -79 -53 -140 l-43 -110 -109 -7 c-61 -4 -129
-8 -153 -10 l-42 -3 110 -89 c61 -49 113 -92 116 -97 4 -7 -29 -125 -76 -271
-8 -25 -4 -24 78 29 48 31 106 69 129 85 l43 29 122 -85 c67 -47 124 -84 126
-82 2 2 -13 64 -32 138 -20 74 -36 139 -36 144 0 5 54 50 121 99 109 81 118
90 92 93 -15 1 -84 6 -153 10 l-125 7 -52 145 c-50 139 -52 144 -63 115z"/>
<path d="M2649 1850 l-54 -140 -70 -1 c-38 -1 -106 -4 -151 -7 l-81 -7 113
-90 c62 -49 113 -96 113 -103 1 -7 -17 -72 -39 -144 -22 -72 -39 -133 -36
-135 2 -2 57 31 122 73 65 43 123 77 129 77 5 0 62 -37 126 -81 64 -45 119
-82 121 -82 3 0 -13 66 -34 146 -24 87 -36 149 -30 153 5 3 60 44 122 91 103
78 110 85 84 88 -16 1 -85 6 -153 10 l-124 7 -49 140 c-27 77 -50 141 -52 142
-2 2 -27 -60 -57 -137z"/>
<path d="M3571 1849 l-54 -139 -66 -1 c-36 -1 -104 -4 -150 -7 l-85 -7 116
-93 115 -94 -29 -96 c-16 -54 -35 -118 -43 -144 -8 -27 -11 -48 -8 -48 3 0 51
30 107 66 55 37 110 73 122 80 19 13 31 7 143 -71 67 -47 125 -85 127 -85 3 0
2 10 -1 21 -4 12 -22 78 -40 146 l-33 123 120 93 121 92 -69 6 c-38 4 -106 7
-151 8 l-81 1 -30 83 c-16 45 -37 107 -47 137 -10 30 -20 58 -24 62 -3 4 -30
-56 -60 -133z"/>
<path d="M4541 1970 c-6 -14 -31 -77 -55 -140 l-44 -115 -108 -7 c-60 -4 -128
-8 -152 -10 l-44 -3 116 -94 c82 -66 115 -98 112 -110 -3 -9 -21 -68 -41 -133
-19 -64 -38 -124 -41 -133 -4 -9 53 22 125 69 l132 86 121 -85 c67 -47 123
-83 125 -81 2 2 -13 63 -32 136 -20 72 -35 138 -33 145 2 8 56 54 120 103
l116 89 -96 6 c-53 4 -120 7 -149 7 -63 0 -59 -5 -118 169 -39 116 -43 124
-54 101z"/>
</g>
</svg>
